<svg xmlns="http://www.w3.org/2000/svg" xmlns:xlink="http://www.w3.org/1999/xlink" width="17" height="17" viewBox="0 0 17 17">
  <defs>
    <clipPath id="clip-path">
      <rect id="Rectangle_44" data-name="Rectangle 44" width="17" height="17" transform="translate(24 131)" stroke="#76797e" stroke-width="1"/>
    </clipPath>
  </defs>
  <g id="Mask_Group_19" data-name="Mask Group 19" transform="translate(-24 -131)" clip-path="url(#clip-path)">
    <g id="calendar" transform="translate(24 131)">
      <path id="Path_584" data-name="Path 584" d="M13.718,1.309h-.634V.668a.664.664,0,1,0-1.328,0v.642H5.244V.668a.664.664,0,1,0-1.328,0v.642H3.282A3.286,3.286,0,0,0,0,4.591v9.123A3.286,3.286,0,0,0,3.282,17H13.718A3.286,3.286,0,0,0,17,13.714V4.591a3.286,3.286,0,0,0-3.282-3.282ZM3.282,2.637h.634V3.931a.664.664,0,0,0,1.328,0V2.637h6.512V3.931a.664.664,0,0,0,1.328,0V2.637h.634a1.957,1.957,0,0,1,1.955,1.955v.634H1.328V4.591A1.957,1.957,0,0,1,3.282,2.637ZM13.718,15.669H3.282a1.957,1.957,0,0,1-1.955-1.955V6.553H15.672v7.161A1.957,1.957,0,0,1,13.718,15.669ZM5.9,9.164a.664.664,0,0,1-.664.664H3.927a.664.664,0,0,1,0-1.328H5.233A.664.664,0,0,1,5.9,9.164Zm7.84,0a.664.664,0,0,1-.664.664H11.767a.664.664,0,1,1,0-1.328h1.305A.664.664,0,0,1,13.736,9.164Zm-3.924,0a.664.664,0,0,1-.664.664H7.844a.664.664,0,1,1,0-1.328H9.149A.664.664,0,0,1,9.813,9.164ZM5.9,13.08a.664.664,0,0,1-.664.664H3.927a.664.664,0,0,1,0-1.328H5.233A.664.664,0,0,1,5.9,13.08Zm7.84,0a.664.664,0,0,1-.664.664H11.767a.664.664,0,1,1,0-1.328h1.305A.664.664,0,0,1,13.736,13.08Zm-3.924,0a.664.664,0,0,1-.664.664H7.844a.664.664,0,1,1,0-1.328H9.149A.664.664,0,0,1,9.813,13.08Z"/>
    </g>
  </g>
</svg>
