<svg xmlns="http://www.w3.org/2000/svg" xmlns:xlink="http://www.w3.org/1999/xlink" width="17" height="17" viewBox="0 0 17 17">
  <defs>
    <clipPath id="clip-path">
      <rect id="Rectangle_3" data-name="Rectangle 3" width="17" height="17" stroke="#76797e" stroke-width="1"/>
    </clipPath>
  </defs>
  <g id="Mask_Group_2" data-name="Mask Group 2" clip-path="url(#clip-path)">
    <g id="dashboard" transform="translate(0 0)">
      <path id="Path_3" data-name="Path 3" d="M16.864,8.364H10.682a.773.773,0,0,1-.773-.773V1.409a.773.773,0,0,1,.773-.773h6.182a.773.773,0,0,1,.773.773V7.591A.773.773,0,0,1,16.864,8.364ZM11.455,6.818h4.636V2.182H11.455Zm2.318,10.818a3.864,3.864,0,1,1,3.864-3.864A3.864,3.864,0,0,1,13.773,17.636Zm0-6.182a2.318,2.318,0,1,0,2.318,2.318A2.318,2.318,0,0,0,13.773,11.455ZM7.591,9.909H1.409a.773.773,0,0,0-.773.773v6.182a.773.773,0,0,0,.773.773H7.591a.773.773,0,0,0,.773-.773V10.682A.773.773,0,0,0,7.591,9.909Zm-.773,6.182H2.182V11.455H6.818Zm.773-7.727H1.409a.773.773,0,0,1-.773-.773V1.409A.773.773,0,0,1,1.409.636H7.591a.773.773,0,0,1,.773.773V7.591A.773.773,0,0,1,7.591,8.364ZM2.182,6.818H6.818V2.182H2.182Z" transform="translate(-0.636 -0.636)"/>
    </g>
  </g>
</svg>
