<svg xmlns="http://www.w3.org/2000/svg" version="1.1" xmlns:xlink="http://www.w3.org/1999/xlink" xmlns:svgjs="http://svgjs.com/svgjs" width="56" height="56" x="0" y="0" viewBox="0 0 682.667 682.667" style="enable-background:new 0 0 512 512" xml:space="preserve" class=""><g transform="matrix(1,0,0,1,0,0)"><defs stroke-width="10" style="stroke-width: 10;"><clipPath id="a" clipPathUnits="userSpaceOnUse" stroke-width="10" style="stroke-width: 10;"><path d="M0 512h512V0H0Z" fill="#777777" data-original="#000000" stroke-width="10" style="stroke-width: 10;" class=""></path></clipPath></defs><path d="M0 0v-96.167" style="stroke-width: 10; stroke-linecap: round; stroke-linejoin: round; stroke-miterlimit: 10; stroke-dasharray: none; stroke-opacity: 1;" transform="matrix(1.33333 0 0 -1.33333 551.504 264.238)" fill="none" stroke="#777777" stroke-width="10" stroke-linecap="round" stroke-linejoin="round" stroke-miterlimit="10" stroke-dasharray="none" stroke-opacity="" data-original="#000000"></path><g clip-path="url(#a)" transform="matrix(1.33333 0 0 -1.33333 0 682.667)" stroke-width="10" style="stroke-width: 10;"><path d="M0 0h165.758c6.932 0 12.553 5.62 12.553 12.553v71.062c0 6.933-5.621 12.553-12.553 12.553H61.036" style="stroke-width: 10; stroke-linecap: round; stroke-linejoin: round; stroke-miterlimit: 10; stroke-dasharray: none; stroke-opacity: 1;" transform="translate(326.19 217.654)" fill="none" stroke="#777777" stroke-width="10" stroke-linecap="round" stroke-linejoin="round" stroke-miterlimit="10" stroke-dasharray="none" stroke-opacity="" data-original="#000000"></path><path d="M0 0h-77.332c-6.933 0-12.553-5.62-12.553-12.553v-71.062c0-6.933 5.62-12.553 12.553-12.553h80.23" style="stroke-width: 10; stroke-linecap: round; stroke-linejoin: round; stroke-miterlimit: 10; stroke-dasharray: none; stroke-opacity: 1;" transform="translate(97.385 313.822)" fill="none" stroke="#777777" stroke-width="10" stroke-linecap="round" stroke-linejoin="round" stroke-miterlimit="10" stroke-dasharray="none" stroke-opacity="" data-original="#000000"></path><path d="M0 0h-21.594" style="stroke-width: 10; stroke-linecap: round; stroke-linejoin: round; stroke-miterlimit: 10; stroke-dasharray: none; stroke-opacity: 1;" transform="translate(350.2 313.822)" fill="none" stroke="#777777" stroke-width="10" stroke-linecap="round" stroke-linejoin="round" stroke-miterlimit="10" stroke-dasharray="none" stroke-opacity="" data-original="#000000"></path><path d="m0 0-24.219-24.219" style="stroke-width: 10; stroke-linecap: round; stroke-linejoin: round; stroke-miterlimit: 10; stroke-dasharray: none; stroke-opacity: 1;" transform="translate(336.843 167.76)" fill="none" stroke="#777777" stroke-width="10" stroke-linecap="round" stroke-linejoin="round" stroke-miterlimit="10" stroke-dasharray="none" stroke-opacity="" data-original="#000000"></path><path d="m0 0 116.183-116.182c6.687-6.688 6.687-17.531 0-24.219-6.689-6.688-17.532-6.688-24.22 0L-24.702-23.736" style="stroke-width: 10; stroke-linecap: round; stroke-linejoin: round; stroke-miterlimit: 10; stroke-dasharray: none; stroke-opacity: 1;" transform="translate(311.85 192.754)" fill="none" stroke="#777777" stroke-width="10" stroke-linecap="round" stroke-linejoin="round" stroke-miterlimit="10" stroke-dasharray="none" stroke-opacity="" data-original="#000000"></path><path d="M0 0c-24.069-18.845-40.944-46.458-45.82-78.031" style="stroke-width: 10; stroke-linecap: round; stroke-linejoin: round; stroke-miterlimit: 10; stroke-dasharray: none; stroke-opacity: 1;" transform="translate(137.313 366.094)" fill="none" stroke="#777777" stroke-width="10" stroke-linecap="round" stroke-linejoin="round" stroke-miterlimit="10" stroke-dasharray="none" stroke-opacity="" data-original="#000000"></path><path d="M0 0c8.751-59.396 59.924-104.986 121.751-104.986 67.974 0 123.077 55.104 123.077 123.077 0 67.974-55.103 123.078-123.077 123.078-8.832 0-17.446-.931-25.75-2.698" style="stroke-width: 10; stroke-linecap: round; stroke-linejoin: round; stroke-miterlimit: 10; stroke-dasharray: none; stroke-opacity: 1;" transform="translate(91.37 251.037)" fill="none" stroke="#777777" stroke-width="10" stroke-linecap="round" stroke-linejoin="round" stroke-miterlimit="10" stroke-dasharray="none" stroke-opacity="" data-original="#000000"></path><path d="M0 0c-22.365-16.209-36.912-42.544-36.912-72.277 0-42.83 30.186-78.603 70.444-87.221" style="stroke-width: 10; stroke-linecap: round; stroke-linejoin: round; stroke-miterlimit: 10; stroke-dasharray: none; stroke-opacity: 1;" transform="translate(160.83 341.405)" fill="none" stroke="#777777" stroke-width="10" stroke-linecap="round" stroke-linejoin="round" stroke-miterlimit="10" stroke-dasharray="none" stroke-opacity="" data-original="#000000"></path><path d="M0 0c40.503 8.43 70.935 44.323 70.935 87.327 0 49.266-39.938 89.203-89.203 89.203a89.362 89.362 0 0 1-22.059-2.749" style="stroke-width: 10; stroke-linecap: round; stroke-linejoin: round; stroke-miterlimit: 10; stroke-dasharray: none; stroke-opacity: 1;" transform="translate(231.388 181.8)" fill="none" stroke="#777777" stroke-width="10" stroke-linecap="round" stroke-linejoin="round" stroke-miterlimit="10" stroke-dasharray="none" stroke-opacity="" data-original="#000000"></path><path d="M0 0c-4.729-4.728-12.394-4.728-17.121 0-4.728 4.728-4.728 12.393 0 17.121 4.727 4.728 12.392 4.728 17.121 0C4.728 12.393 4.728 4.728 0 0Z" style="stroke-width: 10; stroke-linecap: round; stroke-linejoin: round; stroke-miterlimit: 10; stroke-dasharray: none; stroke-opacity: 1;" transform="translate(471.894 261.447)" fill="none" stroke="#777777" stroke-width="10" stroke-linecap="round" stroke-linejoin="round" stroke-miterlimit="10" stroke-dasharray="none" stroke-opacity="" data-original="#000000"></path><path d="m0 0-12.085-12.085" style="stroke-width: 10; stroke-linecap: round; stroke-linejoin: round; stroke-miterlimit: 10; stroke-dasharray: none; stroke-opacity: 1;" transform="translate(454.773 261.447)" fill="none" stroke="#777777" stroke-width="10" stroke-linecap="round" stroke-linejoin="round" stroke-miterlimit="10" stroke-dasharray="none" stroke-opacity="" data-original="#000000"></path><path d="m0 0-22.53-22.53" style="stroke-width: 10; stroke-linecap: round; stroke-linejoin: round; stroke-miterlimit: 10; stroke-dasharray: none; stroke-opacity: 1;" transform="translate(80.995 380.865)" fill="none" stroke="#777777" stroke-width="10" stroke-linecap="round" stroke-linejoin="round" stroke-miterlimit="10" stroke-dasharray="none" stroke-opacity="" data-original="#000000"></path><path d="m0 0-22.53 22.53" style="stroke-width: 10; stroke-linecap: round; stroke-linejoin: round; stroke-miterlimit: 10; stroke-dasharray: none; stroke-opacity: 1;" transform="translate(80.995 358.335)" fill="none" stroke="#777777" stroke-width="10" stroke-linecap="round" stroke-linejoin="round" stroke-miterlimit="10" stroke-dasharray="none" stroke-opacity="" data-original="#000000"></path><path d="m0 0-22.53-22.53" style="stroke-width: 10; stroke-linecap: round; stroke-linejoin: round; stroke-miterlimit: 10; stroke-dasharray: none; stroke-opacity: 1;" transform="translate(379.082 369.6)" fill="none" stroke="#777777" stroke-width="10" stroke-linecap="round" stroke-linejoin="round" stroke-miterlimit="10" stroke-dasharray="none" stroke-opacity="" data-original="#000000"></path><path d="m0 0-22.53 22.53" style="stroke-width: 10; stroke-linecap: round; stroke-linejoin: round; stroke-miterlimit: 10; stroke-dasharray: none; stroke-opacity: 1;" transform="translate(379.082 347.07)" fill="none" stroke="#777777" stroke-width="10" stroke-linecap="round" stroke-linejoin="round" stroke-miterlimit="10" stroke-dasharray="none" stroke-opacity="" data-original="#000000"></path><path d="M0 0c0-13.665-11.077-24.742-24.741-24.742-13.665 0-24.742 11.077-24.742 24.742 0 13.665 11.077 24.742 24.742 24.742C-11.077 24.742 0 13.665 0 0Z" style="stroke-width: 10; stroke-linecap: round; stroke-linejoin: round; stroke-miterlimit: 10; stroke-dasharray: none; stroke-opacity: 1;" transform="translate(138.905 439.92)" fill="none" stroke="#777777" stroke-width="10" stroke-linecap="round" stroke-linejoin="round" stroke-miterlimit="10" stroke-dasharray="none" stroke-opacity="" data-original="#000000"></path><path d="M0 0c0-12.282-9.957-22.239-22.239-22.239S-44.479-12.282-44.479 0s9.958 22.239 22.24 22.239C-9.957 22.239 0 12.282 0 0Z" style="stroke-width: 10; stroke-linecap: round; stroke-linejoin: round; stroke-miterlimit: 10; stroke-dasharray: none; stroke-opacity: 1;" transform="translate(344.663 417.676)" fill="none" stroke="#777777" stroke-width="10" stroke-linecap="round" stroke-linejoin="round" stroke-miterlimit="10" stroke-dasharray="none" stroke-opacity="" data-original="#000000"></path><path d="M0 0c0 15.463 12.535 27.998 27.998 27.998 15.463 0 27.998-12.535 27.998-27.998 0-15.462-12.535-27.998-27.998-27.998C12.535-27.998 0-15.462 0 0" style="stroke-width: 10; stroke-linecap: round; stroke-linejoin: round; stroke-miterlimit: 10; stroke-dasharray: none; stroke-opacity: 1;" transform="translate(138.081 369.603)" fill="none" stroke="#777777" stroke-width="10" stroke-linecap="round" stroke-linejoin="round" stroke-miterlimit="10" stroke-dasharray="none" stroke-opacity="" data-original="#000000"></path><path d="M0 0c-4.549 3.883-10.931 6.318-18.02 6.339-7.087.022-13.484-2.376-18.056-6.231" style="stroke-width: 10; stroke-linecap: round; stroke-linejoin: round; stroke-miterlimit: 10; stroke-dasharray: none; stroke-opacity: 1;" transform="translate(229.188 248.692)" fill="none" stroke="#777777" stroke-width="10" stroke-linecap="round" stroke-linejoin="round" stroke-miterlimit="10" stroke-dasharray="none" stroke-opacity="" data-original="#000000"></path><path d="M0 0h.089" style="stroke-width: 10; stroke-linecap: round; stroke-linejoin: round; stroke-miterlimit: 10; stroke-dasharray: none; stroke-opacity: 1;" transform="translate(252.9 282.783)" fill="none" stroke="#777777" stroke-width="10" stroke-linecap="round" stroke-linejoin="round" stroke-miterlimit="10" stroke-dasharray="none" stroke-opacity="" data-original="#000000"></path><path d="M0 0h.088" style="stroke-width: 10; stroke-linecap: round; stroke-linejoin: round; stroke-miterlimit: 10; stroke-dasharray: none; stroke-opacity: 1;" transform="translate(171.281 282.783)" fill="none" stroke="#777777" stroke-width="10" stroke-linecap="round" stroke-linejoin="round" stroke-miterlimit="10" stroke-dasharray="none" stroke-opacity="" data-original="#000000"></path><path d="M0 0h.088" style="stroke-width: 10; stroke-linecap: round; stroke-linejoin: round; stroke-miterlimit: 10; stroke-dasharray: none; stroke-opacity: 1;" transform="translate(252.89 282.783)" fill="none" stroke="#777777" stroke-width="10" stroke-linecap="round" stroke-linejoin="round" stroke-miterlimit="10" stroke-dasharray="none" stroke-opacity="" data-original="#000000"></path></g></g></svg>