<svg xmlns="http://www.w3.org/2000/svg" xmlns:xlink="http://www.w3.org/1999/xlink" width="24" height="24" viewBox="0 0 24 24">
  <defs>
    <clipPath id="clip-path">
      <rect id="Rectangle_3" data-name="Rectangle 3" width="24" height="24" fill="#4890ff" stroke="#76797e" stroke-width="1"/>
    </clipPath>
  </defs>
  <g id="Mask_Group_11" data-name="Mask Group 11" clip-path="url(#clip-path)">
    <g id="menu" transform="translate(0 3.6)">
      <path id="Path_20" data-name="Path 20" d="M18,4.8a1.2,1.2,0,0,0-1.2-1.2H1.2A1.2,1.2,0,1,0,1.2,6H16.8A1.2,1.2,0,0,0,18,4.8Zm-16.8,6H22.8a1.2,1.2,0,0,1,0,2.4H1.2a1.2,1.2,0,1,1,0-2.4Zm0,7.2H12a1.2,1.2,0,0,1,0,2.4H1.2a1.2,1.2,0,0,1,0-2.4Z" transform="translate(0 -3.6)" fill="#4890ff"/>
    </g>
  </g>
</svg>
