<svg xmlns="http://www.w3.org/2000/svg" xmlns:xlink="http://www.w3.org/1999/xlink" width="20" height="20" viewBox="0 0 20 20">
  <defs>
    <clipPath id="clip-path">
      <rect id="Rectangle_1" data-name="Rectangle 1" width="20" height="20" transform="translate(907 -230)" fill="#fff" stroke="#707070" stroke-width="1"/>
    </clipPath>
  </defs>
  <g id="Mask_Group_1" data-name="Mask Group 1" transform="translate(-907 230)" clip-path="url(#clip-path)">
    <g id="_1" data-name="1" transform="translate(907 -230)">
      <path id="Path_1" data-name="Path 1" d="M16,8a4,4,0,1,0-3.621-5.689l-1.071-.4a1.621,1.621,0,0,0,.025-.249,1.681,1.681,0,1,0-.255.875l1.069.395A3.927,3.927,0,0,0,12.2,5.25L8.537,6.8A3.981,3.981,0,0,0,3.59,4.928L2.668,2.99a1.658,1.658,0,1,0-1,.343,1.637,1.637,0,0,0,.4-.054l.921,1.936a3.993,3.993,0,0,0-.214,6.774l-.61,1.1a1.65,1.65,0,0,0-.5-.084,1.687,1.687,0,1,0,1.081.409l.611-1.1a3.966,3.966,0,0,0,4.072-.474l1.312,1.443A3.981,3.981,0,0,0,7.667,16a4.027,4.027,0,0,0,.05.6l-1.544.366a1.657,1.657,0,1,0,.161.7c0-.018-.005-.036-.005-.054l1.541-.365a4,4,0,1,0,7.321-3.139l1.958-1.273a1.7,1.7,0,1,0-.362-.56l-1.963,1.276a4.022,4.022,0,0,0-1.49-1.183l1.627-4.51A3.986,3.986,0,0,0,16,8ZM9.667,2.667a1,1,0,1,1,1-1A1,1,0,0,1,9.667,2.667Zm-9-1a1,1,0,1,1,1,1A1,1,0,0,1,.667,1.667Zm1,14a1,1,0,1,1,1-1A1,1,0,0,1,1.667,15.667Zm3,3a1,1,0,1,1,1-1A1,1,0,0,1,4.667,18.667Zm13.667-8a1,1,0,1,1-1,1A1,1,0,0,1,18.333,10.667Zm-4.3-3.979a1.672,1.672,0,0,1,1.63-1.355h.667a1.672,1.672,0,0,1,1.63,1.355,3.308,3.308,0,0,1-3.926,0ZM16,4.667a1,1,0,1,1,1-1A1,1,0,0,1,16,4.667Zm0-4A3.328,3.328,0,0,1,18.516,6.18a2.361,2.361,0,0,0-1.327-1.348,1.667,1.667,0,1,0-2.377,0A2.361,2.361,0,0,0,13.484,6.18,3.328,3.328,0,0,1,16,.667Zm-14.333,8a3.333,3.333,0,1,1,5.845,2.185A2.361,2.361,0,0,0,6.182,9.5,1.667,1.667,0,1,0,3.8,9.5a2.361,2.361,0,0,0-1.326,1.343A3.316,3.316,0,0,1,1.667,8.667Zm2.327-.333a1,1,0,1,1,1,1A1,1,0,0,1,3.993,8.333ZM3.031,11.35A1.671,1.671,0,0,1,4.66,10h.667a1.671,1.671,0,0,1,1.63,1.359,3.308,3.308,0,0,1-3.926-.009ZM9.7,18.684a1.671,1.671,0,0,1,1.629-1.35h.667a1.671,1.671,0,0,1,1.63,1.359A3.308,3.308,0,0,1,9.7,18.684Zm1.962-2.017a1,1,0,1,1,1-1A1,1,0,0,1,11.66,16.667ZM15,16a3.316,3.316,0,0,1-.822,2.185,2.362,2.362,0,0,0-1.329-1.354,1.667,1.667,0,1,0-2.378,0,2.361,2.361,0,0,0-1.326,1.343A3.332,3.332,0,1,1,15,16Zm-2.294-3.858a3.945,3.945,0,0,0-3.47.689L7.924,11.387A3.971,3.971,0,0,0,8.8,7.417l3.666-1.554a4.022,4.022,0,0,0,1.87,1.768Zm0,0" fill="#777"/>
    </g>
  </g>
</svg>
