<svg xmlns="http://www.w3.org/2000/svg" xmlns:xlink="http://www.w3.org/1999/xlink" width="17" height="17" viewBox="0 0 17 17">
  <defs>
    <clipPath id="clip-path">
      <rect id="Rectangle_50" data-name="Rectangle 50" width="17" height="17" transform="translate(24 278)" stroke="#76797e" stroke-width="1"/>
    </clipPath>
  </defs>
  <g id="Mask_Group_22" data-name="Mask Group 22" transform="translate(-24 -278)" clip-path="url(#clip-path)">
    <g id="notification" transform="translate(24 278)">
      <path id="Path_588" data-name="Path 588" d="M13.646,8.728V7.139A5.156,5.156,0,0,0,9.994,2.214v-.72a1.494,1.494,0,0,0-2.988,0v.72A5.156,5.156,0,0,0,3.354,7.139V8.728a7.82,7.82,0,0,1-2.186,5.437.5.5,0,0,0,.359.843H6.06a2.49,2.49,0,0,0,4.88,0h4.533a.5.5,0,0,0,.359-.843A7.82,7.82,0,0,1,13.646,8.728ZM8,1.494a.5.5,0,0,1,1,0v.522c-.164-.016-.33-.024-.5-.024S8.166,2,8,2.016ZM8.5,16a1.5,1.5,0,0,1-1.408-1H9.908A1.5,1.5,0,0,1,8.5,16ZM2.6,14.012A8.806,8.806,0,0,0,4.35,8.728V7.139a4.15,4.15,0,0,1,8.3,0V8.728A8.806,8.806,0,0,0,14.4,14.012ZM14.975,7.139a.5.5,0,0,0,1,0,7.422,7.422,0,0,0-2.188-5.283.5.5,0,1,0-.7.7A6.432,6.432,0,0,1,14.975,7.139Zm-13.447.5a.5.5,0,0,0,.5-.5,6.432,6.432,0,0,1,1.9-4.578.5.5,0,0,0-.7-.7A7.422,7.422,0,0,0,1.029,7.139.5.5,0,0,0,1.527,7.637Z"/>
    </g>
  </g>
</svg>
