<svg xmlns="http://www.w3.org/2000/svg" xmlns:xlink="http://www.w3.org/1999/xlink" width="20" height="20" viewBox="0 0 20 20">
  <defs>
    <clipPath id="clip-path">
      <rect id="Rectangle_1" data-name="Rectangle 1" width="20" height="20" transform="translate(907 -230)" fill="#fff" stroke="#707070" stroke-width="1"/>
    </clipPath>
  </defs>
  <g id="Mask_Group_1" data-name="Mask Group 1" transform="translate(-907 230)" clip-path="url(#clip-path)">
    <g id="_1" data-name="1" transform="translate(907 -230)">
      <path id="Path_1" data-name="Path 1" d="M19.118,1.618h-.736V.874a.335.335,0,0,0-.335-.335h-.995a.335.335,0,0,0-.335.335v.744h-2.11V.874a.335.335,0,0,0-.335-.335h-.995a.335.335,0,0,0-.335.335v.744h-2.11V.874A.335.335,0,0,0,10.5.539H9.5a.335.335,0,0,0-.335.335v.744H7.057V.874A.335.335,0,0,0,6.722.539H5.728a.335.335,0,0,0-.335.335v.744H3.282V.874A.335.335,0,0,0,2.947.539H1.953a.335.335,0,0,0-.335.335v.744H.882A.883.883,0,0,0,0,2.5V18.579a.883.883,0,0,0,.882.882H4.858a.293.293,0,0,0,0-.586H3.822v-7.5h2.65v7.5H6.225a.293.293,0,0,0,0,.586H19.118A.883.883,0,0,0,20,18.579V2.5A.883.883,0,0,0,19.118,1.618ZM17.3,1.125H17.8V2.7H17.3Zm-3.775,0h.493V2.7h-.493Zm-3.775,0h.493V2.7H9.754Zm-3.775,0h.493V2.7H5.979Zm-3.775,0H2.7V2.7H2.2ZM.882,2.2h.736v.744a.335.335,0,0,0,.335.335h.995a.335.335,0,0,0,.335-.335V2.2h2.11v.744a.335.335,0,0,0,.335.335h.995a.335.335,0,0,0,.335-.335V2.2h2.11v.744a.335.335,0,0,0,.335.335H10.5a.335.335,0,0,0,.335-.335V2.2h2.11v.744a.335.335,0,0,0,.335.335h.995a.335.335,0,0,0,.335-.335V2.2h2.11v.744a.335.335,0,0,0,.335.335h.995a.335.335,0,0,0,.335-.335V2.2h.736a.3.3,0,0,1,.3.3V4.314H5.542a.293.293,0,0,0,0,.586h.93V7.55H5.44V6.268A.336.336,0,0,0,5.1,5.932H3.822V4.9h.352a.293.293,0,0,0,0-.586H.586V2.5A.3.3,0,0,1,.882,2.2Zm14.8,15.053V16.225H17.8v1.032Zm2.11-1.618H14.607V14.607H17.8Zm-3.439-1.618a.336.336,0,0,0-.335.335v1.533a.336.336,0,0,0,.335.335H15.1v1.282a.336.336,0,0,0,.335.335h.743v1.032h-2.65V12.989h1.282a.336.336,0,0,0,.335-.335V11.121a.336.336,0,0,0-.335-.335H13.529V4.9h2.65v9.121ZM3.822,10.785V9.754H8.089v1.032ZM4.854,6.518V7.55H1.665V6.518ZM2.743,8.136H6.471V9.168H2.743ZM9.707,4.9v5.885H8.675V9.5a.336.336,0,0,0-.335-.335H7.058V4.9Zm2.557,5.885a.293.293,0,0,0,0,.586h2.3V12.4H8.675V11.371H10.9a.293.293,0,0,0,0-.586h-.6V4.9h2.65v5.885Zm-3.589,2.2h2.65v1.032H8.675Zm2.9,1.618a.336.336,0,0,0,.335-.335V12.989h1.032v5.886h-2.65V14.607ZM.882,18.875a.3.3,0,0,1-.3-.3V4.9h2.65V5.932H1.414a.336.336,0,0,0-.335.335V7.8a.336.336,0,0,0,.335.335h.743V9.418a.336.336,0,0,0,.335.335h.743c0,1.6,0,2.646,0,9.121Zm6.176-7.5H8.089v2.9a.336.336,0,0,0,.335.335H9.707v4.268H7.058v-7.5Zm12.356,7.207a.3.3,0,0,1-.3.3H16.764V17.842h1.282a.336.336,0,0,0,.335-.335V14.356a.336.336,0,0,0-.335-.335H16.764V4.9h2.65Z" fill="#777"/>
    </g>
  </g>
</svg>
