<svg xmlns="http://www.w3.org/2000/svg" version="1.1" xmlns:xlink="http://www.w3.org/1999/xlink" xmlns:svgjs="http://svgjs.com/svgjs" width="17" height="17" x="0" y="0" viewBox="0 0 512 512" style="enable-background:new 0 0 512 512" xml:space="preserve" class=""><g><path d="M124.52 239.304H16.696C7.475 239.304 0 246.78 0 256v215.647c0 9.22 7.475 16.696 16.696 16.696H124.52c9.22 0 16.696-7.475 16.696-16.696V256c-.001-9.222-7.476-16.696-16.696-16.696zm-16.696 215.647H33.391V272.696h74.433v182.255zM309.912 23.658H202.089c-9.22 0-16.696 7.474-16.696 16.696v431.293c0 9.22 7.475 16.696 16.696 16.696h107.824c9.22 0 16.696-7.475 16.696-16.696V40.353c-.001-9.221-7.476-16.695-16.697-16.695zm-16.695 431.293h-74.433V57.049h74.433v397.902zM495.304 131.48H387.481c-9.22 0-16.696 7.475-16.696 16.696v323.47c0 9.22 7.475 16.696 16.696 16.696h107.824c9.22 0 16.696-7.475 16.696-16.696v-323.47c-.001-9.22-7.476-16.696-16.697-16.696zm-16.695 323.471h-74.433V164.872h74.433v290.079z" fill="#000000" data-original="#000000" class=""></path></g></svg>