<svg xmlns="http://www.w3.org/2000/svg" xmlns:xlink="http://www.w3.org/1999/xlink" width="20" height="20" viewBox="0 0 20 20">
  <defs>
    <clipPath id="clip-path">
      <rect id="Rectangle_1" data-name="Rectangle 1" width="20" height="20" transform="translate(907 -230)" fill="#fff" stroke="#707070" stroke-width="1"/>
    </clipPath>
  </defs>
  <g id="Mask_Group_1" data-name="Mask Group 1" transform="translate(-907 230)" clip-path="url(#clip-path)">
    <g id="_1" data-name="1" transform="translate(907 -230)">
      <path id="Path_1" data-name="Path 1" d="M2.969,9.375a1.749,1.749,0,0,0,1.217-.494l1.734.867a1.719,1.719,0,0,0-.022.213,1.758,1.758,0,0,0,3.516,0,1.736,1.736,0,0,0-.176-.753l2.353-2.353a1.736,1.736,0,0,0,.753.176A1.76,1.76,0,0,0,14.1,5.273a1.731,1.731,0,0,0-.088-.521L16.058,3.22a1.757,1.757,0,1,0-.785-1.462,1.731,1.731,0,0,0,.088.521L13.317,3.811a1.75,1.75,0,0,0-2.555,2.215L8.409,8.379A1.727,1.727,0,0,0,6.44,8.7L4.705,7.83a1.719,1.719,0,0,0,.022-.213A1.758,1.758,0,1,0,2.969,9.375Zm0,0" fill="#777"/>
      <path id="Path_2" data-name="Path 2" d="M19.414,18.828h-.625V6.445a.586.586,0,0,0-.586-.586H15.859a.586.586,0,0,0-.586.586V18.828H14.1V9.961a.586.586,0,0,0-.586-.586H11.172a.586.586,0,0,0-.586.586v8.867H9.414v-4.18a.586.586,0,0,0-.586-.586H6.484a.586.586,0,0,0-.586.586v4.18H4.727V12.3a.586.586,0,0,0-.586-.586H1.8a.586.586,0,0,0-.586.586v6.523H.586A.586.586,0,0,0,.586,20H19.414a.586.586,0,0,0,0-1.172Zm0,0" fill="#777"/>
    </g>
  </g>
</svg>
