<svg xmlns="http://www.w3.org/2000/svg" xmlns:xlink="http://www.w3.org/1999/xlink" width="20" height="20" viewBox="0 0 20 20">
  <defs>
    <clipPath id="clip-path">
      <rect id="Rectangle_1" data-name="Rectangle 1" width="20" height="20" transform="translate(816 532)" fill="#fff" stroke="#707070" stroke-width="1"/>
    </clipPath>
  </defs>
  <g id="Mask_Group_1" data-name="Mask Group 1" transform="translate(-816 -532)" clip-path="url(#clip-path)">
    <g id="_1" data-name="1" transform="translate(815.333 531.333)">
      <path id="Layer_3" data-name="Layer 3" d="M17.471,2h-.8V1.333a.667.667,0,0,0-1.333,0V2h-4V1.333a.667.667,0,0,0-1.333,0V2H6V1.333a.667.667,0,1,0-1.333,0V2h-.8A2.533,2.533,0,0,0,1.333,4.529V18.137a2.533,2.533,0,0,0,2.529,2.529H17.471A2.533,2.533,0,0,0,20,18.137V4.529A2.533,2.533,0,0,0,17.471,2ZM9.137,13.8l-2,2a.667.667,0,0,1-.943,0L4.861,14.471a.667.667,0,1,1,.943-.943l.863.862L8.2,12.862a.667.667,0,1,1,.943.943Zm0-6-2,2a.667.667,0,0,1-.943,0L4.861,8.471A.667.667,0,1,1,5.8,7.529l.863.862L8.2,6.862a.667.667,0,1,1,.943.943ZM16,15.333H11.333a.667.667,0,1,1,0-1.333H16a.667.667,0,1,1,0,1.333Zm0-6H11.333a.667.667,0,1,1,0-1.333H16a.667.667,0,1,1,0,1.333Z" fill="#fff"/>
    </g>
  </g>
</svg>
