<svg xmlns="http://www.w3.org/2000/svg" xmlns:xlink="http://www.w3.org/1999/xlink" width="17" height="17" viewBox="0 0 17 17">
  <defs>
    <clipPath id="clip-path">
      <rect id="Rectangle_46" data-name="Rectangle 46" width="17" height="17" transform="translate(24 180)" stroke="#76797e" stroke-width="1"/>
    </clipPath>
  </defs>
  <g id="Mask_Group_20" data-name="Mask Group 20" transform="translate(-24 -180)" clip-path="url(#clip-path)">
    <g id="tasks" transform="translate(22.3 178.3)">
      <path id="Path_585" data-name="Path 585" d="M15.3,13.031H8.925a.638.638,0,0,1,0-1.275H15.3a.638.638,0,0,1,0,1.275Zm0-4.42H8.925a.638.638,0,0,1,0-1.275H15.3a.638.638,0,0,1,0,1.275Zm-9.444.705a.633.633,0,0,1-.433-.17l-.756-.706a.637.637,0,1,1,.875-.926l.289.264.85-.918a.638.638,0,1,1,.935.867L6.332,9.112a.635.635,0,0,1-.442.2H5.865Zm0,4.429a.633.633,0,0,1-.433-.17l-.756-.706a.637.637,0,1,1,.875-.927l.289.264.85-.918a.638.638,0,1,1,.935.867L6.332,13.541a.635.635,0,0,1-.442.2H5.865Z"/>
      <path id="Path_586" data-name="Path 586" d="M16.15,2.975A1.273,1.273,0,0,1,17.425,4.25v11.9a1.273,1.273,0,0,1-1.275,1.275H4.25A1.273,1.273,0,0,1,2.975,16.15V4.25A1.273,1.273,0,0,1,4.25,2.975Zm0-1.275H4.25A2.547,2.547,0,0,0,1.7,4.25v11.9A2.547,2.547,0,0,0,4.25,18.7h11.9a2.547,2.547,0,0,0,2.55-2.55V4.25A2.547,2.547,0,0,0,16.15,1.7Z"/>
    </g>
  </g>
</svg>
