<svg xmlns="http://www.w3.org/2000/svg" xmlns:xlink="http://www.w3.org/1999/xlink" width="20" height="20" viewBox="0 0 20 20">
  <defs>
    <clipPath id="clip-path">
      <rect id="Rectangle_1" data-name="Rectangle 1" width="20" height="20" transform="translate(907 -230)" fill="#fff" stroke="#707070" stroke-width="1"/>
    </clipPath>
  </defs>
  <g id="Mask_Group_1" data-name="Mask Group 1" transform="translate(-907 230)" clip-path="url(#clip-path)">
    <g id="_1" data-name="1" transform="translate(907 -230)">
      <path id="Path_1" data-name="Path 1" d="M3.951,13.657H.762A.763.763,0,0,0,0,14.419v3.189a.763.763,0,0,0,.762.762H3.951a.763.763,0,0,0,.762-.762V14.419A.763.763,0,0,0,3.951,13.657Zm.176,3.951a.178.178,0,0,1-.176.176H.762a.178.178,0,0,1-.176-.176V14.419a.178.178,0,0,1,.176-.176H3.951a.178.178,0,0,1,.176.176ZM18.861,8.1H8.351A1.141,1.141,0,0,0,7.211,9.236v2.434a1.141,1.141,0,0,0,1.139,1.139h10.51A1.141,1.141,0,0,0,20,11.669V9.236A1.141,1.141,0,0,0,18.861,8.1Zm.553,3.573a.554.554,0,0,1-.553.553H8.351a.554.554,0,0,1-.553-.553V9.236a.554.554,0,0,1,.553-.553h10.51a.554.554,0,0,1,.553.553ZM8.916,4.891a.293.293,0,0,0,.293.293H18A.293.293,0,1,0,18,4.6H9.209a.293.293,0,0,0-.293.293Z" fill="#fff"/>
      <path id="Path_2" data-name="Path 2" d="M18,10.159H9.209a.293.293,0,0,0,0,.586H18a.293.293,0,0,0,0-.586Zm.293,5.854A.293.293,0,0,0,18,15.72H9.209a.293.293,0,0,0,0,.586H18a.293.293,0,0,0,.293-.293ZM6.362,7.431a1,1,0,0,0-1.408.109l-.682.8a1.132,1.132,0,0,0-.7-.241H1.139A1.141,1.141,0,0,0,0,9.236v2.434a1.141,1.141,0,0,0,1.139,1.139H3.573a1.141,1.141,0,0,0,1.139-1.139v-.776L6.471,8.839a1,1,0,0,0-.109-1.408ZM4.126,11.669a.554.554,0,0,1-.553.553H1.139a.554.554,0,0,1-.553-.553V9.236a.554.554,0,0,1,.553-.553c2.644,0,2.56-.034,2.75.1l-.652.761a2.971,2.971,0,0,0-.292-.361,1,1,0,0,0-1.481,1.331l.941,1.223a1.007,1.007,0,0,0,.155.161,1,1,0,0,0,.611.229,1.137,1.137,0,0,0,.955-.549v.092Zm1.9-3.212L3.51,11.4a.413.413,0,0,1-.64-.017l-.941-1.223a.412.412,0,0,1,.54-.6c.09.054.093.074.525.635a.293.293,0,0,0,.455.012L4.5,8.966h0L5.4,7.921a.412.412,0,0,1,.627.536ZM1.139,7.248H3.573A1.141,1.141,0,0,0,4.712,6.108V5.332L6.471,3.278a1,1,0,1,0-1.517-1.3l-.682.8a1.132,1.132,0,0,0-.7-.241H1.139A1.141,1.141,0,0,0,0,3.675V6.108A1.141,1.141,0,0,0,1.139,7.248ZM5.4,2.36a.412.412,0,1,1,.627.536L3.51,5.836a.413.413,0,0,1-.64-.017L1.929,4.6a.412.412,0,0,1,.361-.662c.231.02.278.141.7.693a.293.293,0,0,0,.455.012ZM.586,3.675a.554.554,0,0,1,.553-.553c2.644,0,2.56-.034,2.751.1l-.652.761a2.6,2.6,0,0,0-.31-.377A1,1,0,0,0,1.465,4.953l.941,1.223a1,1,0,0,0,1.55.041l.171-.2v.092a.554.554,0,0,1-.553.553H1.139a.554.554,0,0,1-.553-.553ZM18.861,2.535H14.289a.293.293,0,0,0,0,.586h4.571a.554.554,0,0,1,.553.553V6.108a.554.554,0,0,1-.553.553H8.351A.554.554,0,0,1,7.8,6.108V3.675a.554.554,0,0,1,.553-.553h4.571a.293.293,0,1,0,0-.586H8.351A1.141,1.141,0,0,0,7.211,3.675V6.108A1.141,1.141,0,0,0,8.351,7.248h10.51A1.141,1.141,0,0,0,20,6.108V3.675A1.141,1.141,0,0,0,18.861,2.535Z" fill="#fff"/>
      <path id="Path_3" data-name="Path 3" d="M18.861,13.657H8.351A1.141,1.141,0,0,0,7.211,14.8V17.23A1.141,1.141,0,0,0,8.351,18.37h4.571a.293.293,0,0,0,0-.586H8.351A.554.554,0,0,1,7.8,17.23V14.8a.554.554,0,0,1,.553-.553h10.51a.554.554,0,0,1,.553.553V17.23a.554.554,0,0,1-.553.553H14.289a.293.293,0,0,0,0,.586h4.571A1.141,1.141,0,0,0,20,17.23V14.8A1.141,1.141,0,0,0,18.861,13.657Z" fill="#fff"/>
    </g>
  </g>
</svg>
