<svg xmlns="http://www.w3.org/2000/svg" version="1.1" xmlns:xlink="http://www.w3.org/1999/xlink" xmlns:svgjs="http://svgjs.com/svgjs" width="17" height="17" x="0" y="0" viewBox="0 0 32 32" style="enable-background:new 0 0 512 512" xml:space="preserve"><g transform="matrix(1.1399999999999992,0,0,1.1399999999999992,-2.2400032043456832,-2.239930171966545)"><path d="M21.646 14.048c2.575 0 4.668-2.094 4.668-4.668S24.221 4.71 21.646 4.71s-4.668 2.095-4.668 4.669 2.094 4.668 4.668 4.668zm2.668-4.668a2.672 2.672 0 0 1-2.668 2.668c-1.471 0-2.668-1.197-2.668-2.668s1.197-2.669 2.668-2.669a2.672 2.672 0 0 1 2.668 2.669zM21.65 15.548c-.941 0-1.841.151-2.676.449a1 1 0 0 0-.607 1.277c.17.475.66.724 1.141.626.046-.01.092-.004.138-.02a5.96 5.96 0 0 1 2.004-.332c1.7 0 3.295.66 4.493 1.857A6.313 6.313 0 0 1 28 23.898c0 .372-.145.72-.407.984a1.37 1.37 0 0 1-.973.407h-5.38c-.07 0-.132.026-.198.04a.986.986 0 0 0-.802.96 1 1 0 0 0 1 1h5.38c.9 0 1.747-.353 2.387-.993.64-.64.993-1.491.993-2.398a8.3 8.3 0 0 0-2.443-5.907 8.297 8.297 0 0 0-5.907-2.443zM10.354 14.048c2.574 0 4.668-2.094 4.668-4.668S12.928 4.71 10.354 4.71 5.686 6.806 5.686 9.38s2.093 4.668 4.668 4.668zm0-7.337c1.471 0 2.668 1.198 2.668 2.669s-1.197 2.668-2.668 2.668-2.668-1.197-2.668-2.668S8.883 6.71 10.354 6.71zM5.383 27.285h9.942a3.387 3.387 0 0 0 3.383-3.383c0-4.606-3.748-8.354-8.354-8.354S2 19.296 2 23.902a3.387 3.387 0 0 0 3.383 3.383zm4.97-9.737a6.362 6.362 0 0 1 6.355 6.354c0 .763-.62 1.383-1.383 1.383H5.383c-.763 0-1.383-.62-1.383-1.383a6.361 6.361 0 0 1 6.354-6.354z" fill="#000000" data-original="#000000"></path></g></svg>