<svg xmlns="http://www.w3.org/2000/svg" xmlns:xlink="http://www.w3.org/1999/xlink" width="20" height="20" viewBox="0 0 20 20">
  <defs>
    <clipPath id="clip-path">
      <rect id="Rectangle_1" data-name="Rectangle 1" width="20" height="20" transform="translate(907 -230)" fill="#fff" stroke="#707070" stroke-width="1"/>
    </clipPath>
  </defs>
  <g id="Mask_Group_1" data-name="Mask Group 1" transform="translate(-907 230)" clip-path="url(#clip-path)">
    <g id="_1" data-name="1" transform="translate(907 -230)">
      <path id="Path_1" data-name="Path 1" d="M12.069,4.473a3.634,3.634,0,0,1,1.691,2.7,2.932,2.932,0,1,0-1.691-2.7Zm-1.922,6.006A2.933,2.933,0,1,0,7.214,7.546,2.933,2.933,0,0,0,10.148,10.479Zm1.244.2H8.9a3.76,3.76,0,0,0-3.756,3.756v3.044l.008.048.21.066a17.1,17.1,0,0,0,5.106.823,10.483,10.483,0,0,0,4.459-.837l.2-.1h.021V14.435a3.759,3.759,0,0,0-3.755-3.756Zm4.853-3.028h-2.47a3.615,3.615,0,0,1-1.116,2.518,4.463,4.463,0,0,1,3.188,4.271v.938a10.107,10.107,0,0,0,3.936-.827l.2-.1H20V11.406a3.76,3.76,0,0,0-3.755-3.755ZM5,7.451A2.914,2.914,0,0,0,6.561,7,3.63,3.63,0,0,1,7.925,4.683c0-.055.008-.109.008-.165A2.933,2.933,0,1,0,5,7.451Zm2.634,2.718a3.617,3.617,0,0,1-1.115-2.5c-.092-.007-.182-.014-.276-.014H3.756A3.76,3.76,0,0,0,0,11.406v3.044l.008.047.21.066a17.609,17.609,0,0,0,4.229.795v-.919A4.464,4.464,0,0,1,7.635,10.169Z" fill="#fff"/>
    </g>
  </g>
</svg>
